<svg width="39" height="35" viewBox="0 0 39 35" fill="none" xmlns="http://www.w3.org/2000/svg">
<path d="M38.8548 16.2433L30.1932 0.978513C29.8082 0.391405 29.2308 0 28.4609 0H11.1377C10.3678 0 9.79035 0.391405 9.40539 0.978513L0.743798 16.2433C0.358838 16.8304 0.358838 17.6132 0.743798 18.2003L9.40539 33.4651C9.79035 34.0522 10.3678 34.4436 11.1377 34.4436H28.4609C29.2308 34.4436 29.8082 34.0522 30.1932 33.4651L38.8548 18.2003C39.0473 17.6132 39.0473 16.8304 38.8548 16.2433Z" fill="#0872BF"/>
<path d="M29.6378 10.6143H23.5208V12.3155H29.6619L29.6378 10.6143ZM28.3468 22.3174C27.8828 22.6249 27.3348 22.7809 26.7784 22.7638C26.4101 22.8022 26.0378 22.7642 25.6849 22.6521C25.3319 22.54 25.0059 22.3562 24.7273 22.1123C24.2121 21.5282 23.9439 20.7669 23.9793 19.9888H31.9664C32.0239 19.1787 31.9547 18.3646 31.7613 17.5758C31.5741 16.8254 31.2466 16.1172 30.796 15.4886C30.3425 14.8788 29.7568 14.3797 29.0828 14.0287C28.3329 13.659 27.5058 13.4729 26.6698 13.4858C25.8835 13.48 25.1041 13.6318 24.3774 13.9322C23.712 14.2127 23.1091 14.6228 22.6038 15.1387C22.1 15.6649 21.7098 16.2891 21.4577 16.9726C21.187 17.7104 21.0522 18.4911 21.0595 19.277C21.0471 20.074 21.1779 20.8668 21.4456 21.6176C21.673 22.2975 22.034 22.9251 22.5073 23.4636C22.9971 23.9922 23.599 24.4045 24.2688 24.6701C25.0158 24.9547 25.8102 25.0939 26.6095 25.0803C27.7308 25.1153 28.8379 24.8217 29.7946 24.2358C30.7609 23.5491 31.4566 22.5461 31.7613 21.4005H29.0949C28.9521 21.7795 28.6894 22.1015 28.3468 22.3174ZM24.2085 17.3466C24.3024 17.0458 24.4583 16.768 24.6661 16.5311C24.8739 16.2942 25.129 16.1035 25.415 15.9712C25.7938 15.8007 26.2063 15.7182 26.6215 15.7299C26.9215 15.7043 27.2234 15.7438 27.5067 15.8459C27.7899 15.9479 28.0477 16.11 28.2624 16.3211C28.6723 16.8229 28.9354 17.4284 29.0225 18.0705H24.0155C24.035 17.8253 24.0795 17.5828 24.1482 17.3466H24.2085ZM17.8261 16.7675C18.4401 16.5118 18.9737 16.0949 19.3704 15.561C19.735 14.9939 19.9162 14.3283 19.8892 13.6547C19.9129 13.0404 19.7931 12.429 19.5393 11.869C19.3261 11.3839 18.9839 10.9666 18.55 10.6625C18.0899 10.3464 17.5674 10.1325 17.0177 10.0352C16.3672 9.89871 15.7037 9.83398 15.039 9.84211H7.83618V25.02H15.1959C15.8675 25.0205 16.5365 24.9353 17.1866 24.7666C17.8028 24.6072 18.3866 24.3418 18.9119 23.9824C19.4208 23.6297 19.8351 23.1574 20.1184 22.607C20.432 21.9914 20.5855 21.3068 20.5648 20.6162C20.5877 19.7605 20.3477 18.9183 19.8771 18.2032C19.3711 17.484 18.6206 16.9737 17.7657 16.7675H17.8261ZM11.1782 12.4361H14.3031C14.5902 12.4358 14.8767 12.46 15.1597 12.5085C15.4202 12.5471 15.6704 12.6373 15.8957 12.7739C16.1133 12.897 16.2896 13.0817 16.4024 13.3048C16.5421 13.5723 16.6087 13.872 16.5954 14.1735C16.6179 14.4332 16.5782 14.6945 16.4796 14.9358C16.381 15.177 16.2263 15.3914 16.0284 15.561C15.5966 15.8578 15.0799 16.006 14.5564 15.9832H11.1782V12.4361ZM17.0177 21.4125C16.8938 21.6584 16.7063 21.8667 16.4748 22.0158C16.2339 22.1656 15.9684 22.2718 15.6906 22.3295C15.3818 22.3986 15.0659 22.431 14.7495 22.426H11.13V18.2635H14.7495C15.3706 18.2363 15.984 18.4098 16.4989 18.7582C16.7315 18.967 16.9117 19.2276 17.0249 19.5189C17.1381 19.8103 17.1811 20.1242 17.1504 20.4353C17.1831 20.7669 17.1376 21.1016 17.0177 21.4125Z" fill="white"/>
</svg>
