<svg width="39" height="35" viewBox="0 0 39 35" fill="none" xmlns="http://www.w3.org/2000/svg">
<path d="M38.3997 16.2433L29.7381 0.978513C29.3532 0.391405 28.7757 0 28.0058 0H10.6826C9.91271 0 9.33527 0.391405 8.95031 0.978513L0.28872 16.2433C-0.0962399 16.8304 -0.0962399 17.6132 0.28872 18.2003L8.95031 33.4651C9.33527 34.0522 9.91271 34.4436 10.6826 34.4436H28.0058C28.7757 34.4436 29.3532 34.0522 29.7381 33.4651L38.3997 18.2003C38.5922 17.6132 38.5922 16.8304 38.3997 16.2433Z" fill="#0872BF"/>
<path d="M26.0045 8.20081L13.253 8.20081C11.3723 8.20081 9.84192 9.61756 9.84192 11.3593L9.84192 23.2209C9.84192 24.9624 11.372 26.3795 13.253 26.3795L26.0042 26.3795C27.8849 26.3795 29.4153 24.9627 29.4153 23.2209V11.359C29.4153 9.61756 27.8852 8.20081 26.0045 8.20081ZM22.5783 17.2565C22.5783 18.7626 21.2553 19.9877 19.6288 19.9877C18.0023 19.9877 16.6792 18.7626 16.6792 17.2565C16.6792 16.5094 17.0055 15.832 17.532 15.3385H21.7252C22.2524 15.832 22.5783 16.5094 22.5783 17.2565ZM23.4334 10.7279H26.4212V13.5778H23.4334V10.7279ZM26.0045 24.5183L13.253 24.5183C12.4803 24.5183 11.8516 23.9362 11.8516 23.2206L11.8516 15.3385H15.1287C14.837 15.9232 14.6695 16.5714 14.6695 17.2565C14.6695 19.7889 16.8943 21.8485 19.6288 21.8485C22.3633 21.8485 24.588 19.7885 24.588 17.2565C24.588 16.5714 24.4205 15.9232 24.1288 15.3385H27.4056V23.2206C27.4056 23.9362 26.7769 24.5183 26.0045 24.5183Z" fill="white"/>
</svg>
