<svg width="40" height="35" viewBox="0 0 40 35" fill="none" xmlns="http://www.w3.org/2000/svg">
<path d="M38.886 16.2433L30.2245 0.978513C29.8395 0.391405 29.2621 0 28.4921 0H11.169C10.399 0 9.8216 0.391405 9.43664 0.978513L0.775048 16.2433C0.390088 16.8304 0.390088 17.6132 0.775048 18.2003L9.43664 33.4651C9.8216 34.0522 10.399 34.4436 11.169 34.4436H28.4921C29.2621 34.4436 29.8395 34.0522 30.2245 33.4651L38.886 18.2003C39.0785 17.6132 39.0785 16.8304 38.886 16.2433Z" fill="#0872BF"/>
<path d="M14.2994 14.0494H9.58398L9.58398 25.4424H14.2994V14.0494Z" fill="white"/>
<path fill-rule="evenodd" clip-rule="evenodd" d="M9.58398 25.4424H14.2994V14.0494H9.58398L9.58398 25.4424Z" fill="white"/>
<path d="M11.8943 12.2327C13.2124 12.2327 14.2808 11.3302 14.2808 10.2168C14.2808 9.10338 13.2124 8.20081 11.8943 8.20081C10.5763 8.20081 9.50781 9.10338 9.50781 10.2168C9.50781 11.3302 10.5763 12.2327 11.8943 12.2327Z" fill="white"/>
<path d="M26.1528 13.7921C25.1871 13.7921 24.3689 13.9549 23.6963 14.2803C23.0244 14.6059 22.3605 15.1475 21.7037 15.9055V14.0495H17.3125V25.4425H22.0279V19.9712C22.0279 18.9341 22.2058 18.2157 22.5611 17.815C22.9165 17.4146 23.3794 17.2143 23.9512 17.2143C24.4687 17.2143 24.8703 17.3628 25.1563 17.6597C25.4424 17.9565 25.5847 18.4623 25.5847 19.1778V25.4425H30.3236V18.2015C30.3236 16.6994 29.9545 15.5891 29.2166 14.8702C28.4797 14.1513 27.4578 13.7921 26.1528 13.7921Z" fill="white"/>
<path fill-rule="evenodd" clip-rule="evenodd" d="M25.5847 13.8121C25.1101 13.8466 24.6759 13.9258 24.2818 14.0495C24.1682 14.0852 24.058 14.1245 23.9512 14.1676C23.864 14.2027 23.779 14.2403 23.6963 14.2803C23.1347 14.5525 22.5788 14.9754 22.0279 15.5495C21.9196 15.6623 21.8116 15.781 21.7037 15.9055V14.0495H17.3125V25.4425H22.0279V19.9712C22.0279 19.6819 22.0417 19.4175 22.0694 19.1778C22.1146 18.7863 22.1967 18.4609 22.3156 18.2015C22.3849 18.0503 22.4668 17.9214 22.5611 17.815C22.7758 17.5732 23.0296 17.4044 23.3229 17.3086C23.5153 17.2457 23.7247 17.2143 23.9512 17.2143C24.4687 17.2143 24.8703 17.3628 25.1563 17.6597C25.2878 17.7961 25.3889 17.9767 25.4598 18.2015C25.5 18.3291 25.5305 18.4709 25.5513 18.627C25.5515 18.6285 25.5517 18.63 25.5519 18.6315C25.5738 18.7975 25.5847 18.9796 25.5847 19.1778V25.4425H30.3236V18.2015C30.3236 17.2928 30.1885 16.5275 29.9184 15.9055C29.742 15.4993 29.5081 15.1542 29.2166 14.8702C29.0203 14.6787 28.8039 14.5128 28.5673 14.3724C28.3496 14.2432 28.1149 14.1356 27.863 14.0495C27.3607 13.8779 26.7906 13.7921 26.1528 13.7921C25.9574 13.7921 25.7681 13.7988 25.5847 13.8121Z" fill="white"/>
</svg>
