<svg width="40" height="35" viewBox="0 0 40 35" fill="none" xmlns="http://www.w3.org/2000/svg">
<path d="M39.3724 16.2433L30.7108 0.978513C30.3258 0.391405 29.7484 0 28.9785 0H11.6553C10.8854 0 10.3079 0.391405 9.92297 0.978513L1.26138 16.2433C0.876416 16.8304 0.876416 17.6132 1.26138 18.2003L9.92297 33.4651C10.3079 34.0522 10.8854 34.4436 11.6553 34.4436H28.9785C29.7484 34.4436 30.3258 34.0522 30.7108 33.4651L39.3724 18.2003C39.5648 17.6132 39.5648 16.8304 39.3724 16.2433Z" fill="#0872BF"/>
<path d="M29.2392 11.0069C29.7075 10.783 30.8289 10.1177 31.3574 8.68979C31.3574 8.68979 30.0836 9.54269 28.3499 9.64318L28.3184 9.65931C27.4315 8.76298 26.1564 8.20068 24.7385 8.20068C22.0563 8.20068 19.8821 10.2142 19.8821 12.6978C19.8821 13.0747 19.9327 13.4406 20.0275 13.7905L20.004 13.7579C20.004 13.7579 14.8023 14.0339 9.8983 9.06631C9.8983 9.06631 7.73018 12.4782 11.4424 15.0875C10.6295 15.2128 9.1939 14.5354 9.1939 14.5354C9.1939 14.5354 9.27496 18.1226 13.1222 19.001C12.4992 19.1517 11.3339 19.2013 10.9547 19.0512C10.9547 19.0512 11.5235 21.7855 15.4524 22.2625C14.4499 22.7894 12.5806 24.3947 8.35352 24.0936C8.35352 24.0936 11.3888 26.4014 17.0243 26.0757C22.6598 25.7501 26.7512 22.237 28.4039 18.5243C30.0565 14.8115 29.5966 12.6975 29.5966 12.6975C29.5966 12.6975 30.9776 12.0264 31.9268 10.421C31.4884 10.5426 29.8622 10.9104 29.257 11.0466C29.2509 11.0336 29.2449 11.0202 29.2392 11.0069Z" fill="white"/>
<path fill-rule="evenodd" clip-rule="evenodd" d="M31.3574 8.68979C31.2048 9.10208 31.0028 9.4508 30.7813 9.74366C30.3739 10.2823 29.9008 10.6321 29.5486 10.841C29.4329 10.9097 29.3302 10.9631 29.2472 11.0031C29.2445 11.0044 29.2418 11.0056 29.2392 11.0069C29.2392 11.0069 29.2392 11.0069 29.2392 11.0069C29.2449 11.0203 29.2509 11.0336 29.257 11.0466C29.2573 11.0465 29.2577 11.0464 29.2581 11.0463C29.3389 11.0282 29.4378 11.0059 29.5495 10.9806C30.2762 10.8164 31.5471 10.5263 31.9268 10.421C31.8917 10.4804 31.856 10.5385 31.8198 10.5954C31.1846 11.5927 30.3957 12.2005 29.9489 12.4909C29.911 12.5155 29.8756 12.5379 29.8429 12.558C29.8325 12.5643 29.8224 12.5705 29.8126 12.5764C29.7245 12.6297 29.6597 12.6649 29.6251 12.683C29.6065 12.6927 29.5966 12.6975 29.5966 12.6975C29.5966 12.6975 29.5966 12.6976 29.5967 12.6978C29.5996 12.7116 29.6993 13.1874 29.6323 14.0724C29.6194 14.2428 29.6003 14.4283 29.5731 14.6286C29.549 14.8063 29.5186 14.9957 29.4805 15.1964C29.3551 15.8579 29.1465 16.6429 28.8078 17.5421C28.6896 17.8557 28.5556 18.1832 28.4039 18.5243C28.1476 19.1 27.8327 19.6709 27.4624 20.2259C26.7509 21.2926 25.835 22.3004 24.7385 23.1702C23.5637 24.1021 22.1815 24.8756 20.6211 25.3935C19.6304 25.7222 18.5679 25.9479 17.441 26.0456C17.303 26.0576 17.1642 26.0677 17.0243 26.0757C16.3029 26.1174 15.624 26.116 14.9887 26.0817C14.9366 26.0789 14.8847 26.0758 14.8331 26.0726C14.2144 26.0336 13.638 25.9636 13.1048 25.8726C12.7634 25.8143 12.4397 25.7474 12.1339 25.6744C11.9595 25.6328 11.791 25.5892 11.6283 25.5441C10.2956 25.1749 9.35699 24.7062 8.83586 24.4032C8.5161 24.2172 8.35352 24.0936 8.35352 24.0936C8.55651 24.108 8.75406 24.1181 8.94634 24.1241C10.1702 24.1623 11.1805 24.0358 12.0197 23.8297C12.2817 23.7654 12.527 23.6934 12.757 23.6162C13.2786 23.441 13.7212 23.2394 14.0997 23.0415C14.4353 22.8661 14.7206 22.6936 14.9661 22.5451C15.1487 22.4348 15.3094 22.3376 15.4524 22.2625C14.8266 22.1865 14.286 22.0532 13.8194 21.8829C13.3411 21.7083 12.9406 21.4947 12.6056 21.2638C12.5222 21.2063 12.4428 21.1478 12.3674 21.0885C11.936 20.7496 11.6313 20.3867 11.4183 20.0625C11.4073 20.0457 11.3964 20.0289 11.3858 20.0122C11.3786 20.0008 11.3715 19.9895 11.3644 19.9782C11.2421 19.7816 11.1539 19.602 11.0915 19.4544C10.9875 19.2086 10.9547 19.0512 10.9547 19.0512C11.1165 19.1153 11.4216 19.1429 11.7665 19.1419C11.864 19.1416 11.9646 19.139 12.0662 19.1343C12.0862 19.1334 12.1063 19.1324 12.1263 19.1313C12.2852 19.1227 12.445 19.1089 12.597 19.0908C12.625 19.0875 12.6528 19.084 12.6802 19.0803C12.8428 19.0587 12.994 19.032 13.1222 19.001C13.0382 18.9818 12.956 18.9613 12.8756 18.9396C12.859 18.9351 12.8424 18.9306 12.8259 18.926C12.7037 18.892 12.5856 18.8551 12.4715 18.8156C12.4436 18.806 12.416 18.7962 12.3887 18.7863C12.3693 18.7792 12.3501 18.7721 12.3309 18.7649C12.2119 18.7202 12.0974 18.6727 11.9873 18.6225C11.8936 18.5798 11.803 18.5352 11.7155 18.4889C11.5611 18.4073 11.4162 18.3203 11.2802 18.2291C10.7566 17.8778 10.3642 17.4625 10.0704 17.0395C10.0514 17.0122 10.0328 16.9848 10.0146 16.9575C10.0144 16.9571 10.0142 16.9568 10.0139 16.9564C9.92764 16.8263 9.85042 16.6959 9.78131 16.5667C9.21591 15.5094 9.1939 14.5354 9.1939 14.5354C9.1939 14.5354 10.6295 15.2128 11.4424 15.0875C11.1697 14.8958 10.9287 14.6998 10.7162 14.501C10.2991 14.1109 9.99205 13.7106 9.77089 13.3126C9.65633 13.1064 9.56481 12.9009 9.49299 12.6978C9.30385 12.163 9.25125 11.6448 9.27387 11.1753C9.27387 11.1753 9.27387 11.1753 9.27387 11.1753C9.2771 11.1083 9.28185 11.0424 9.28796 10.9775C9.28796 10.9775 9.28796 10.9775 9.28796 10.9775C9.29941 10.8559 9.3156 10.7382 9.33537 10.6249C9.36871 10.4337 9.41223 10.2551 9.46031 10.0921C9.64547 9.46418 9.8983 9.06631 9.8983 9.06631C10.1388 9.30991 10.38 9.5409 10.6212 9.75994C10.7337 9.86204 10.8462 9.96154 10.9586 10.0585C11.0415 10.13 11.1243 10.2001 11.207 10.2688C11.2071 10.2688 11.2071 10.2688 11.2071 10.2688C12.0343 10.9558 12.8562 11.508 13.6464 11.9519C13.6567 11.9576 13.6669 11.9634 13.6772 11.9691C13.6994 11.9815 13.7217 11.9939 13.7439 12.0062C14.0401 12.1697 14.3316 12.3181 14.6172 12.4527C14.8025 12.5401 14.9853 12.6217 15.1651 12.6978C15.5178 12.8471 15.8591 12.9755 16.1864 13.086C16.2132 13.0951 16.2399 13.104 16.2664 13.1128C16.2694 13.1138 16.2724 13.1148 16.2754 13.1157C16.3689 13.1466 16.4612 13.176 16.5522 13.204C16.574 13.2107 16.5957 13.2174 16.6174 13.2239C18.6249 13.8311 20.004 13.7579 20.004 13.7579L20.0275 13.7905C20.0237 13.7767 20.0201 13.7628 20.0164 13.749C20.0108 13.7273 20.0054 13.7057 20.0001 13.6839C19.923 13.3666 19.8821 13.0366 19.8821 12.6978C19.8821 12.5107 19.8944 12.3261 19.9184 12.145C19.9184 12.145 19.9184 12.145 19.9184 12.1449C20.2127 9.9221 22.2584 8.20068 24.7385 8.20068C25.5567 8.20068 26.3274 8.38793 27.0033 8.71856C27.017 8.72522 27.0305 8.73193 27.0441 8.7387C27.3751 8.9044 27.683 9.10469 27.9621 9.33431C27.9621 9.33432 27.9621 9.33432 27.9621 9.33433C28.0868 9.43695 28.2058 9.54543 28.3184 9.65931L28.3499 9.64318C28.4271 9.63871 28.5033 9.63275 28.5786 9.62544C28.6974 9.6139 28.8137 9.599 28.9273 9.58129C29.1418 9.54787 29.3466 9.50446 29.5397 9.4548C29.7167 9.40928 29.884 9.3585 30.0401 9.30536C30.8501 9.02947 31.3574 8.68979 31.3574 8.68979Z" fill="white"/>
</svg>
