<svg width="40" height="43" viewBox="0 0 40 43" fill="none" xmlns="http://www.w3.org/2000/svg">
<path d="M39.9826 31.0519L38.6058 26.3138C38.5141 25.8907 37.9634 25.5523 37.5044 25.7215C37.0455 25.8061 36.6784 26.3138 36.862 26.7368L37.688 29.5289L23.4615 21.9986C23.5533 21.7448 23.5533 21.4064 23.5533 21.1525C23.5533 20.8141 23.4615 20.5603 23.4615 20.2218L37.5962 12.6915L36.7702 15.4837C36.6784 15.9067 36.9537 16.4144 37.4127 16.499C37.8716 16.5836 38.4223 16.3298 38.5141 15.9067L39.8908 11.1685C39.9826 10.7455 39.7073 10.2378 39.2483 10.1532L34.1084 8.88407C33.6495 8.79946 33.0988 9.05329 33.007 9.47634C32.9153 9.89939 33.1906 10.4071 33.6495 10.4917L36.6784 11.2532L22.5437 18.7835C22.0848 18.3604 21.5341 18.022 20.8916 17.9374V2.87675L23.0944 4.90739C23.4615 5.24583 24.0122 5.24583 24.3794 4.90739C24.7465 4.56895 24.7465 4.06129 24.3794 3.72285L20.6162 0.253831C20.2491 -0.0846102 19.6984 -0.0846102 19.3312 0.253831L15.5681 3.72285C15.201 4.06129 15.201 4.56895 15.5681 4.90739C15.9352 5.24583 16.4859 5.24583 16.8531 4.90739L19.0559 2.87675V17.9374C18.4134 18.1066 17.8627 18.3604 17.4038 18.7835L3.26907 11.2532L6.29794 10.4917C6.75686 10.4071 7.03221 9.89939 6.94042 9.47634C6.84864 9.05329 6.29794 8.79946 5.83902 8.88407L0.699122 10.1532C0.240202 10.2378 -0.0351491 10.7455 0.0566348 11.1685L1.43339 15.9067C1.52518 16.3298 2.07588 16.5836 2.5348 16.499C2.99372 16.4144 3.36085 15.9067 3.17728 15.4837L2.35123 12.6915L16.4859 20.3064C16.3942 20.5603 16.3942 20.8987 16.3942 21.1525C16.3942 21.491 16.3942 21.7448 16.4859 21.9986L2.35123 29.5289L3.17728 26.7368C3.26907 26.3138 2.99372 25.8061 2.5348 25.7215C2.07588 25.6369 1.52518 25.8907 1.43339 26.3138L0.0566348 31.0519C-0.126933 31.5596 0.148418 31.9826 0.699122 32.1519L5.83902 33.421C6.29794 33.5056 6.84864 33.2518 6.94042 32.8287C7.03221 32.4057 6.75686 31.898 6.29794 31.8134L3.26907 31.0519L17.4038 23.5216C17.8627 23.9447 18.4134 24.2831 19.0559 24.3677V39.4283L16.8531 37.3977C16.4859 37.0593 15.9352 37.0593 15.5681 37.3977C15.201 37.7361 15.201 38.2438 15.5681 38.5822L19.3312 42.0513C19.6984 42.3897 20.2491 42.3897 20.6162 42.0513L24.3794 38.5822C24.7465 38.2438 24.7465 37.7361 24.3794 37.3977C24.0122 37.0593 23.4615 37.0593 23.0944 37.3977L20.8916 39.4283V24.3677C21.5341 24.1985 22.0848 23.9447 22.5437 23.5216L36.6784 31.0519L33.6495 31.8134C33.1906 31.898 32.9153 32.4057 33.007 32.8287C33.0988 33.2518 33.6495 33.5056 34.1084 33.421L39.2483 32.1519C39.799 31.9826 40.0744 31.5596 39.9826 31.0519ZM19.9737 22.8447C19.0559 22.8447 18.1381 22.1679 18.1381 21.1525C18.1381 20.2218 18.9641 19.4603 19.9737 19.4603C20.9834 19.4603 21.7176 20.2218 21.7176 21.1525C21.8094 22.0833 20.8916 22.8447 19.9737 22.8447Z" fill="#0872BF"/>
<path d="M9.78535 11.6765L15.7513 15.9916C16.0267 16.2455 16.4856 16.2455 16.7609 16.0762C17.1281 15.907 17.2198 15.5686 17.2198 15.2301L16.1184 8.2921C16.1184 8.12288 15.9349 7.86905 15.7513 7.78444L13.9156 6.34607C13.5485 6.00763 12.906 6.09224 12.6306 6.43068C12.2635 6.76912 12.3553 7.36139 12.7224 7.61522L14.2828 8.79976L15.017 13.2841L11.1621 10.492L10.795 8.63054C10.7032 8.20749 10.2443 7.86905 9.78535 7.95366C9.32643 8.03827 8.9593 8.46132 9.05108 8.88437L9.41822 11.0842C9.51 11.4227 9.60178 11.5919 9.78535 11.6765ZM3.72762 22.1682C3.2687 21.999 2.718 22.2528 2.53443 22.6758C2.35086 23.0989 2.62621 23.6065 3.08513 23.7758L5.37973 24.5373C5.47151 24.5373 5.56329 24.6219 5.74686 24.6219C5.83865 24.6219 6.02221 24.6219 6.114 24.5373L13.1814 21.9143C13.5485 21.7451 13.7321 21.4913 13.7321 21.1528C13.7321 20.8144 13.5485 20.476 13.1814 20.3914L6.02221 17.7684C5.83865 17.6838 5.56329 17.6838 5.37973 17.7684L3.08513 18.5299C2.62621 18.6992 2.35086 19.2068 2.53443 19.6299C2.718 20.0529 3.2687 20.3067 3.72762 20.1375L5.65508 19.4606L10.2443 21.1528L5.65508 22.8451L3.72762 22.1682ZM16.2102 34.0136L17.2198 27.0756C17.3116 26.7371 17.1281 26.3987 16.7609 26.2295C16.3938 26.0602 16.0267 26.0602 15.7513 26.3141L9.78535 30.6292C9.60178 30.7984 9.51 30.9676 9.41822 31.1368L9.05108 33.3367C8.9593 33.7598 9.32643 34.2674 9.78535 34.2674C10.2443 34.352 10.795 34.0136 10.795 33.5905L11.1621 31.7291L15.017 28.937L14.2828 33.4213L12.7224 34.6059C12.3553 34.9443 12.2635 35.452 12.6306 35.7904C12.9978 36.1288 13.5485 36.2135 13.9156 35.875L15.7513 34.4366C16.0267 34.4366 16.1184 34.1828 16.2102 34.0136ZM30.1614 30.6292L24.1954 26.2295C23.5529 25.8064 22.6351 26.3141 22.7269 26.991L23.8283 33.929C23.8283 34.0982 24.0118 34.352 24.1954 34.4366L26.0311 35.875C26.3982 36.2135 27.0407 36.1288 27.3161 35.7904C27.6832 35.452 27.5914 34.8597 27.2243 34.6059L25.664 33.4213L24.9297 28.937L28.7846 31.7291L29.1517 33.5905C29.2435 34.0982 29.7024 34.352 30.1614 34.2674C30.6203 34.1828 30.9874 33.7598 30.8956 33.3367L30.5285 31.1368C30.4367 30.883 30.3449 30.7138 30.1614 30.6292ZM36.2191 20.1375C36.678 20.3067 37.2287 20.0529 37.4123 19.6299C37.5959 19.2068 37.3205 18.6992 36.8616 18.5299L34.567 17.7684C34.3834 17.6838 34.1081 17.6838 33.9245 17.7684L26.8571 20.3914C26.49 20.5606 26.3064 20.8144 26.3064 21.1528C26.3064 21.4913 26.49 21.8297 26.8571 21.9143L33.9245 24.5373C34.1081 24.6219 34.3834 24.6219 34.567 24.5373L36.8616 23.7758C37.3205 23.6065 37.5959 23.0989 37.4123 22.6758C37.2287 22.2528 36.678 21.999 36.2191 22.1682L34.2916 22.8451L29.7024 21.1528L34.2916 19.4606L36.2191 20.1375ZM23.7365 8.2921L22.7269 15.2301C22.6351 15.5686 22.8187 15.907 23.1858 16.0762C23.4611 16.2455 23.9201 16.2455 24.1954 15.9916L30.1614 11.6765C30.3449 11.5073 30.4367 11.3381 30.5285 11.1688L30.8956 8.96898C30.9874 8.54593 30.6203 8.03827 30.1614 8.03827C29.7024 7.95366 29.1517 8.2921 29.1517 8.71515L28.7846 10.5766L24.9297 13.3687L25.664 8.88437L27.2243 7.69983C27.5914 7.36139 27.6832 6.85373 27.3161 6.51529C26.9489 6.17685 26.3982 6.09224 26.0311 6.43068L24.1954 7.86905C23.9201 7.86905 23.8283 8.12288 23.7365 8.2921Z" fill="#0872BF"/>
</svg>
